<?xml version="1.0" standalone="no"?>
<!DOCTYPE svg PUBLIC "-//W3C//DTD SVG 20010904//EN"
 "http://www.w3.org/TR/2001/REC-SVG-20010904/DTD/svg10.dtd">
<svg version="1.0" xmlns="http://www.w3.org/2000/svg"
 width="315.000000pt" height="315.000000pt" viewBox="0 0 315.000000 315.000000"
 preserveAspectRatio="xMidYMid meet">
<metadata>
Created by potrace 1.14, written by Peter Selinger 2001-2017
</metadata>
<g transform="translate(0.000000,315.000000) scale(0.100000,-0.100000)"
fill="#000000" stroke="none">
<path d="M1573 2950 c-18 -4 -39 -12 -46 -18 -7 -6 -40 -18 -73 -25 -32 -8
-90 -34 -128 -57 -59 -36 -75 -41 -108 -37 -21 3 -52 17 -69 32 -56 46 -108
68 -152 62 -52 -7 -117 -54 -141 -101 -16 -33 -17 -40 -4 -52 13 -13 21 -13
69 5 80 31 121 28 154 -11 22 -26 26 -39 22 -70 -3 -23 -16 -50 -32 -66 -58
-60 -85 -96 -85 -113 0 -10 -14 -34 -30 -52 -17 -19 -30 -43 -30 -53 0 -11
-10 -34 -23 -53 -35 -55 -60 -95 -82 -131 -11 -18 -35 -50 -52 -70 -18 -21
-33 -41 -33 -45 0 -4 -12 -20 -27 -35 -16 -16 -38 -41 -50 -57 -12 -15 -40
-50 -62 -76 -23 -27 -41 -52 -41 -57 0 -5 -11 -21 -24 -37 -13 -16 -29 -49
-35 -73 -7 -25 -19 -62 -28 -82 -20 -47 -13 -131 20 -250 24 -85 43 -117 110
-186 51 -53 178 -109 287 -127 154 -26 178 -31 205 -49 37 -24 40 -41 15 -81
-31 -50 -50 -58 -88 -35 -76 47 -287 47 -336 1 -12 -12 -26 -21 -31 -21 -4 0
-27 -20 -50 -44 -29 -31 -47 -63 -60 -105 -16 -55 -17 -67 -4 -119 12 -50 22
-66 84 -127 78 -78 98 -94 169 -143 144 -97 310 -142 398 -109 60 23 116 99
137 186 16 66 16 66 54 69 47 4 63 -9 79 -62 17 -58 59 -117 126 -176 65 -59
139 -100 267 -148 76 -29 104 -34 180 -36 82 -1 94 1 137 27 81 49 128 119
128 193 0 41 -27 110 -63 159 -61 83 -168 184 -218 208 -50 22 -59 37 -59 98
0 20 -6 41 -13 47 -16 14 -21 85 -8 110 16 30 76 41 246 46 88 2 174 9 190 14
179 60 267 117 351 229 32 43 84 190 84 238 0 23 -14 87 -31 141 -34 111 -38
119 -79 189 -16 28 -43 77 -60 110 -17 33 -44 83 -60 110 -41 73 -117 226
-125 255 -4 14 -15 39 -25 56 -9 17 -23 48 -30 70 -12 38 -22 55 -96 174 -19
30 -34 57 -34 61 0 3 9 18 21 33 25 32 62 34 145 6 75 -25 100 -25 107 -1 8
30 -32 81 -96 122 -75 49 -136 53 -209 14 -79 -42 -107 -36 -238 55 -14 9 -48
24 -75 33 -28 8 -68 22 -90 31 -43 16 -194 20 -252 6z m-253 -515 c30 -28 66
-58 80 -67 15 -9 34 -34 44 -56 16 -35 16 -43 4 -68 -13 -29 -15 -29 -89 -26
l-76 4 -14 -34 c-16 -40 -17 -142 0 -161 6 -8 36 -17 66 -19 30 -3 57 -7 60
-10 10 -9 -18 -73 -47 -108 -39 -47 -38 -46 -82 -80 -39 -30 -60 -35 -125 -30
-44 3 -127 71 -140 114 -6 17 -17 49 -25 71 -21 55 -20 144 3 212 11 32 23 74
27 93 3 19 17 48 30 63 13 16 24 32 24 36 0 16 101 113 132 126 40 16 53 10
128 -60z m735 -37 c26 -25 43 -56 66 -123 27 -78 31 -103 31 -185 -2 -160 -64
-280 -174 -336 -27 -14 -65 -24 -88 -24 -85 0 -191 85 -220 175 -7 22 -19 51
-28 65 -22 35 -21 243 1 268 8 9 18 27 21 38 7 23 38 39 98 49 21 3 82 28 135
55 54 28 104 50 111 50 7 0 28 -15 47 -32z m-1157 -651 c8 -16 21 -64 30 -108
21 -100 11 -124 -63 -152 -82 -30 -143 -7 -132 50 19 99 47 167 83 204 44 45
63 46 82 6z m1341 -101 c21 -16 37 -62 51 -142 22 -122 -9 -152 -124 -119 -65
19 -81 40 -71 94 7 35 58 152 78 179 10 13 42 8 66 -12z m-751 -924 c-27 -5
-39 8 -31 37 l6 23 23 -29 c22 -28 22 -28 2 -31z m57 -42 c3 -5 -1 -10 -10
-10 -9 0 -13 5 -10 10 3 6 8 10 10 10 2 0 7 -4 10 -10z"/>
<path d="M1813 2203 c-7 -3 -13 -10 -13 -18 0 -28 -27 -37 -61 -20 -28 15 -33
15 -47 2 -8 -9 -17 -38 -20 -66 -4 -50 -3 -52 41 -97 37 -37 51 -44 69 -39 36
10 75 62 81 106 9 64 -21 143 -50 132z"/>
</g>
</svg>
